<svg width="24" height="24" viewBox="0 0 24 24" fill="none" xmlns="http://www.w3.org/2000/svg">
<path d="M20 22L12 17.5556L4 22V4.22222C4 3.63285 4.24082 3.06762 4.66947 2.65087C5.09812 2.23413 5.67951 2 6.28571 2H17.7143C18.3205 2 18.9019 2.23413 19.3305 2.65087C19.7592 3.06762 20 3.63285 20 4.22222V22Z" stroke="black" stroke-width="2" stroke-linecap="round" stroke-linejoin="round"/>
<path d="M11.2861 11.0359C11.4916 11.3529 11.7537 11.6151 12.0548 11.8049C12.3558 11.9947 12.6887 12.1075 13.0308 12.1358C13.373 12.1641 13.7164 12.1071 14.0378 11.9688C14.3592 11.8304 14.6511 11.614 14.8936 11.334L16.3289 9.67787C16.7647 9.15728 17.0058 8.46003 17.0003 7.73629C16.9949 7.01256 16.7433 6.32024 16.2998 5.80847C15.8562 5.29669 15.2562 5.00639 14.629 5.0001C14.0018 4.99382 13.3975 5.27204 12.9463 5.77484L12.1234 6.71886" stroke="black" stroke-linecap="round" stroke-linejoin="round"/>
<path d="M12.7143 8.96411C12.5088 8.64716 12.2467 8.3849 11.9456 8.19513C11.6446 8.00536 11.3117 7.8925 10.9696 7.86423C10.6274 7.83596 10.284 7.89292 9.96261 8.03126C9.64121 8.16959 9.34936 8.38607 9.10684 8.666L7.67152 10.3222C7.23576 10.8428 6.99464 11.54 7.00009 12.2637C7.00554 12.9875 7.25713 13.6798 7.70066 14.1916C8.14419 14.7033 8.74419 14.9936 9.37142 14.9999C9.99865 15.0062 10.6029 14.728 11.0541 14.2252L11.8722 13.2812" stroke="black" stroke-linecap="round" stroke-linejoin="round"/>
</svg>
